<?xml version="1.0" standalone="no"?>
<!DOCTYPE svg PUBLIC "-//W3C//DTD SVG 20010904//EN"
 "http://www.w3.org/TR/2001/REC-SVG-20010904/DTD/svg10.dtd">
<svg version="1.0" xmlns="http://www.w3.org/2000/svg"
 width="1000.000000pt" height="1000.000000pt" viewBox="0 0 1000.000000 1000.000000"
 preserveAspectRatio="xMidYMid meet">
<metadata>
Created by potrace 1.11, written by Peter Selinger 2001-2013
</metadata>
<g transform="translate(0.000000,1000.000000) scale(0.100000,-0.100000)"
fill="#000000" stroke="none">
<path d="M0 5000 l0 -5000 5000 0 5000 0 0 5000 0 5000 -5000 0 -5000 0 0
-5000z m5473 33 c-248 -1495 -454 -2733 -458 -2750 l-6 -33 -467 0 -467 0 457
2742 c251 1509 457 2746 457 2751 1 4 211 7 469 7 l467 0 -452 -2717z m-1853
1338 l0 -539 -665 -413 c-365 -228 -664 -416 -664 -419 0 -3 299 -191 664
-419 l665 -414 0 -539 c0 -429 -3 -538 -12 -532 -7 4 -44 29 -83 54 -91 61
-1960 1229 -2087 1304 l-98 58 0 488 0 488 83 48 c101 58 1955 1216 2092 1307
55 37 101 66 103 67 1 0 2 -243 2 -539z m2900 449 c68 -46 1944 -1218 2058
-1286 l82 -49 0 -486 0 -487 -97 -58 c-128 -75 -1997 -1243 -2088 -1304 -38
-25 -76 -50 -82 -54 -10 -6 -13 103 -13 532 l0 539 665 414 c365 228 664 416
664 419 0 3 -299 191 -664 419 l-665 413 0 539 0 539 43 -26 c23 -15 67 -44
97 -64z"/>
</g>
</svg>
